%TF.GenerationSoftware,KiCad,Pcbnew,(5.1.6)-1*%
%TF.CreationDate,2020-06-12T21:02:23-04:00*%
%TF.ProjectId,cMoy,634d6f79-2e6b-4696-9361-645f70636258,rev?*%
%TF.SameCoordinates,Original*%
%TF.FileFunction,Soldermask,Top*%
%TF.FilePolarity,Negative*%
%FSLAX46Y46*%
G04 Gerber Fmt 4.6, Leading zero omitted, Abs format (unit mm)*
G04 Created by KiCad (PCBNEW (5.1.6)-1) date 2020-06-12 21:02:23*
%MOMM*%
%LPD*%
G01*
G04 APERTURE LIST*
%ADD10C,1.800000*%
%ADD11C,2.100000*%
%ADD12R,2.100000X2.100000*%
%ADD13R,1.900000X1.900000*%
%ADD14C,1.900000*%
%ADD15C,1.700000*%
%ADD16O,1.700000X1.700000*%
%ADD17R,2.500000X1.700000*%
%ADD18O,2.500000X1.700000*%
%ADD19O,2.300000X4.100000*%
%ADD20O,4.100000X2.300000*%
%ADD21R,4.100000X2.300000*%
%ADD22C,1.650000*%
G04 APERTURE END LIST*
%TO.C,BT1*%
G36*
G01*
X148716706Y-27040000D02*
X149987294Y-27040000D01*
G75*
G02*
X150252000Y-27304706I0J-264706D01*
G01*
X150252000Y-28575294D01*
G75*
G02*
X149987294Y-28840000I-264706J0D01*
G01*
X148716706Y-28840000D01*
G75*
G02*
X148452000Y-28575294I0J264706D01*
G01*
X148452000Y-27304706D01*
G75*
G02*
X148716706Y-27040000I264706J0D01*
G01*
G37*
D10*
X149352000Y-31940000D03*
%TD*%
D11*
%TO.C,C1*%
X136652000Y-39544000D03*
D12*
X136652000Y-34544000D03*
%TD*%
%TO.C,C2*%
X136652000Y-45720000D03*
D11*
X136652000Y-50720000D03*
%TD*%
%TO.C,C3*%
X140208000Y-56040000D03*
X140208000Y-66040000D03*
%TD*%
%TO.C,C4*%
X133604000Y-66040000D03*
X133604000Y-56040000D03*
%TD*%
D13*
%TO.C,D1*%
X133604000Y-28448000D03*
D14*
X136144000Y-28448000D03*
%TD*%
D15*
%TO.C,R1*%
X144780000Y-27940000D03*
D16*
X139700000Y-27940000D03*
%TD*%
%TO.C,R2*%
X150876000Y-36576000D03*
D15*
X145796000Y-36576000D03*
%TD*%
%TO.C,R3*%
X145796000Y-41148000D03*
D16*
X150876000Y-41148000D03*
%TD*%
%TO.C,R4*%
X149860000Y-58928000D03*
D15*
X144780000Y-58928000D03*
%TD*%
%TO.C,R5*%
X144780000Y-64008000D03*
D16*
X149860000Y-64008000D03*
%TD*%
D15*
%TO.C,R6*%
X144780000Y-73152000D03*
D16*
X144780000Y-68072000D03*
%TD*%
%TO.C,R7*%
X149860000Y-68072000D03*
D15*
X149860000Y-73152000D03*
%TD*%
D16*
%TO.C,R8*%
X140589000Y-73660000D03*
D15*
X135509000Y-73660000D03*
%TD*%
%TO.C,R9*%
X135509000Y-69977000D03*
D16*
X140589000Y-69977000D03*
%TD*%
D17*
%TO.C,U1*%
X145796000Y-46228000D03*
D18*
X153416000Y-53848000D03*
X145796000Y-48768000D03*
X153416000Y-51308000D03*
X145796000Y-51308000D03*
X153416000Y-48768000D03*
X145796000Y-53848000D03*
X153416000Y-46228000D03*
%TD*%
D19*
%TO.C,J1*%
X116623000Y-39469000D03*
D20*
X124623000Y-34269000D03*
X123423000Y-36969000D03*
D19*
X127823000Y-43569000D03*
D21*
X120523000Y-44069000D03*
%TD*%
%TO.C,J2*%
X120777000Y-67056000D03*
D19*
X128077000Y-66556000D03*
D20*
X123677000Y-59956000D03*
X124877000Y-57256000D03*
D19*
X116877000Y-62456000D03*
%TD*%
D22*
%TO.C,RV1*%
X119808000Y-47919000D03*
X119808000Y-50419000D03*
X119808000Y-52919000D03*
X122308000Y-47919000D03*
X122308000Y-50419000D03*
X122308000Y-52919000D03*
X128558000Y-47919000D03*
X128558000Y-52919000D03*
%TD*%
M02*
