M48
; DRILL file {KiCad (5.1.6)-1} date 06/12/20 21:02:47
; FORMAT={-:-/ absolute / inch / decimal}
; #@! TF.CreationDate,2020-06-12T21:02:47-04:00
; #@! TF.GenerationSoftware,Kicad,Pcbnew,(5.1.6)-1
; #@! TF.FileFunction,Plated,1,2,PTH
FMAT,2
INCH
T1C0.0276
T2C0.0315
T3C0.0354
T4C0.0394
T5C0.0512
%
G90
G05
T1
X5.88Y-1.1
X5.88Y-1.2575
T2
X5.74Y-1.62
X5.94Y-1.62
X5.74Y-1.44
X5.94Y-1.44
X5.335Y-2.755
X5.535Y-2.755
X5.74Y-1.82
X5.74Y-1.92
X5.74Y-2.02
X5.74Y-2.12
X6.04Y-1.82
X6.04Y-1.92
X6.04Y-2.02
X6.04Y-2.12
X5.335Y-2.9
X5.535Y-2.9
X5.7Y-2.68
X5.7Y-2.88
X5.5Y-1.1
X5.7Y-1.1
X5.7Y-2.32
X5.9Y-2.32
X5.9Y-2.68
X5.9Y-2.88
X5.7Y-2.52
X5.9Y-2.52
T3
X5.26Y-1.12
X5.36Y-1.12
T4
X5.38Y-1.8
X5.38Y-1.9969
X5.26Y-2.2063
X5.26Y-2.6
X5.52Y-2.2063
X5.52Y-2.6
X4.7169Y-1.8866
X4.7169Y-1.985
X4.7169Y-2.0834
X4.8153Y-1.8866
X4.8153Y-1.985
X4.8153Y-2.0834
X5.0613Y-1.8866
X5.0613Y-2.0834
X5.38Y-1.36
X5.38Y-1.5569
T5
X4.6015Y-2.4589
X4.755Y-2.64
X4.8692Y-2.3605
X4.9164Y-2.2542
X5.0424Y-2.6203
X4.5915Y-1.5539
X4.745Y-1.735
X4.8592Y-1.4555
X4.9064Y-1.3492
X5.0324Y-1.7153
T0
M30
