%TF.GenerationSoftware,KiCad,Pcbnew,(5.1.6)-1*%
%TF.CreationDate,2020-06-12T21:02:23-04:00*%
%TF.ProjectId,cMoy,634d6f79-2e6b-4696-9361-645f70636258,rev?*%
%TF.SameCoordinates,Original*%
%TF.FileFunction,Copper,L2,Bot*%
%TF.FilePolarity,Positive*%
%FSLAX46Y46*%
G04 Gerber Fmt 4.6, Leading zero omitted, Abs format (unit mm)*
G04 Created by KiCad (PCBNEW (5.1.6)-1) date 2020-06-12 21:02:23*
%MOMM*%
%LPD*%
G01*
G04 APERTURE LIST*
%TA.AperFunction,ComponentPad*%
%ADD10C,1.700000*%
%TD*%
%TA.AperFunction,ComponentPad*%
%ADD11C,2.000000*%
%TD*%
%TA.AperFunction,ComponentPad*%
%ADD12R,2.000000X2.000000*%
%TD*%
%TA.AperFunction,ComponentPad*%
%ADD13R,1.800000X1.800000*%
%TD*%
%TA.AperFunction,ComponentPad*%
%ADD14C,1.800000*%
%TD*%
%TA.AperFunction,ComponentPad*%
%ADD15C,1.600000*%
%TD*%
%TA.AperFunction,ComponentPad*%
%ADD16O,1.600000X1.600000*%
%TD*%
%TA.AperFunction,ComponentPad*%
%ADD17R,2.400000X1.600000*%
%TD*%
%TA.AperFunction,ComponentPad*%
%ADD18O,2.400000X1.600000*%
%TD*%
%TA.AperFunction,ComponentPad*%
%ADD19O,2.200000X4.000000*%
%TD*%
%TA.AperFunction,ComponentPad*%
%ADD20O,4.000000X2.200000*%
%TD*%
%TA.AperFunction,ComponentPad*%
%ADD21R,4.000000X2.200000*%
%TD*%
%TA.AperFunction,ComponentPad*%
%ADD22C,1.550000*%
%TD*%
%TA.AperFunction,Conductor*%
%ADD23C,0.300000*%
%TD*%
G04 APERTURE END LIST*
%TO.P,BT1,1*%
%TO.N,SPST_PIN_7*%
%TA.AperFunction,ComponentPad*%
G36*
G01*
X148752000Y-27090000D02*
X149952000Y-27090000D01*
G75*
G02*
X150202000Y-27340000I0J-250000D01*
G01*
X150202000Y-28540000D01*
G75*
G02*
X149952000Y-28790000I-250000J0D01*
G01*
X148752000Y-28790000D01*
G75*
G02*
X148502000Y-28540000I0J250000D01*
G01*
X148502000Y-27340000D01*
G75*
G02*
X148752000Y-27090000I250000J0D01*
G01*
G37*
%TD.AperFunction*%
D10*
%TO.P,BT1,2*%
%TO.N,-9V*%
X149352000Y-31940000D03*
%TD*%
D11*
%TO.P,C1,2*%
%TO.N,V_GND*%
X136652000Y-39544000D03*
D12*
%TO.P,C1,1*%
%TO.N,SPST_PIN_8*%
X136652000Y-34544000D03*
%TD*%
%TO.P,C2,1*%
%TO.N,V_GND*%
X136652000Y-45720000D03*
D11*
%TO.P,C2,2*%
%TO.N,-9V*%
X136652000Y-50720000D03*
%TD*%
%TO.P,C3,2*%
%TO.N,Net-(C3-Pad2)*%
X140208000Y-56040000D03*
%TO.P,C3,1*%
%TO.N,Net-(C3-Pad1)*%
X140208000Y-66040000D03*
%TD*%
%TO.P,C4,1*%
%TO.N,Net-(C4-Pad1)*%
X133604000Y-66040000D03*
%TO.P,C4,2*%
%TO.N,Net-(C4-Pad2)*%
X133604000Y-56040000D03*
%TD*%
D13*
%TO.P,D1,1*%
%TO.N,-9V*%
X133604000Y-28448000D03*
D14*
%TO.P,D1,2*%
%TO.N,Net-(D1-Pad2)*%
X136144000Y-28448000D03*
%TD*%
D15*
%TO.P,R1,1*%
%TO.N,SPST_PIN_8*%
X144780000Y-27940000D03*
D16*
%TO.P,R1,2*%
%TO.N,Net-(D1-Pad2)*%
X139700000Y-27940000D03*
%TD*%
%TO.P,R2,2*%
%TO.N,V_GND*%
X150876000Y-36576000D03*
D15*
%TO.P,R2,1*%
%TO.N,SPST_PIN_8*%
X145796000Y-36576000D03*
%TD*%
%TO.P,R3,1*%
%TO.N,V_GND*%
X145796000Y-41148000D03*
D16*
%TO.P,R3,2*%
%TO.N,-9V*%
X150876000Y-41148000D03*
%TD*%
%TO.P,R4,2*%
%TO.N,Net-(C3-Pad1)*%
X149860000Y-58928000D03*
D15*
%TO.P,R4,1*%
%TO.N,V_GND*%
X144780000Y-58928000D03*
%TD*%
%TO.P,R5,1*%
%TO.N,V_GND*%
X144780000Y-64008000D03*
D16*
%TO.P,R5,2*%
%TO.N,Net-(C4-Pad1)*%
X149860000Y-64008000D03*
%TD*%
D15*
%TO.P,R6,1*%
%TO.N,Net-(R6-Pad1)*%
X144780000Y-73152000D03*
D16*
%TO.P,R6,2*%
%TO.N,V_GND*%
X144780000Y-68072000D03*
%TD*%
%TO.P,R7,2*%
%TO.N,V_GND*%
X149860000Y-68072000D03*
D15*
%TO.P,R7,1*%
%TO.N,Net-(R7-Pad1)*%
X149860000Y-73152000D03*
%TD*%
D16*
%TO.P,R8,2*%
%TO.N,Net-(R6-Pad1)*%
X140589000Y-73660000D03*
D15*
%TO.P,R8,1*%
%TO.N,Net-(J2-PadT)*%
X135509000Y-73660000D03*
%TD*%
%TO.P,R9,1*%
%TO.N,Net-(J2-PadR)*%
X135509000Y-69977000D03*
D16*
%TO.P,R9,2*%
%TO.N,Net-(R7-Pad1)*%
X140589000Y-69977000D03*
%TD*%
D17*
%TO.P,U1,1*%
%TO.N,Net-(J2-PadT)*%
X145796000Y-46228000D03*
D18*
%TO.P,U1,5*%
%TO.N,Net-(C4-Pad1)*%
X153416000Y-53848000D03*
%TO.P,U1,2*%
%TO.N,Net-(R6-Pad1)*%
X145796000Y-48768000D03*
%TO.P,U1,6*%
%TO.N,Net-(R7-Pad1)*%
X153416000Y-51308000D03*
%TO.P,U1,3*%
%TO.N,Net-(C3-Pad1)*%
X145796000Y-51308000D03*
%TO.P,U1,7*%
%TO.N,Net-(J2-PadR)*%
X153416000Y-48768000D03*
%TO.P,U1,4*%
%TO.N,-9V*%
X145796000Y-53848000D03*
%TO.P,U1,8*%
%TO.N,SPST_PIN_8*%
X153416000Y-46228000D03*
%TD*%
D19*
%TO.P,J1,S*%
%TO.N,V_GND*%
X116623000Y-39469000D03*
D20*
%TO.P,J1,R*%
%TO.N,Net-(J1-PadR)*%
X124623000Y-34269000D03*
%TO.P,J1,RN*%
%TO.N,N/C*%
X123423000Y-36969000D03*
D19*
%TO.P,J1,TN*%
X127823000Y-43569000D03*
D21*
%TO.P,J1,T*%
%TO.N,Net-(J1-PadT)*%
X120523000Y-44069000D03*
%TD*%
%TO.P,J2,T*%
%TO.N,Net-(J2-PadT)*%
X120777000Y-67056000D03*
D19*
%TO.P,J2,TN*%
%TO.N,N/C*%
X128077000Y-66556000D03*
D20*
%TO.P,J2,RN*%
X123677000Y-59956000D03*
%TO.P,J2,R*%
%TO.N,Net-(J2-PadR)*%
X124877000Y-57256000D03*
D19*
%TO.P,J2,S*%
%TO.N,V_GND*%
X116877000Y-62456000D03*
%TD*%
D22*
%TO.P,RV1,1*%
%TO.N,Net-(J1-PadR)*%
X119808000Y-47919000D03*
%TO.P,RV1,2*%
%TO.N,Net-(C3-Pad2)*%
X119808000Y-50419000D03*
%TO.P,RV1,3*%
%TO.N,V_GND*%
X119808000Y-52919000D03*
%TO.P,RV1,4*%
%TO.N,Net-(J1-PadT)*%
X122308000Y-47919000D03*
%TO.P,RV1,5*%
%TO.N,Net-(C4-Pad2)*%
X122308000Y-50419000D03*
%TO.P,RV1,6*%
%TO.N,V_GND*%
X122308000Y-52919000D03*
%TO.P,RV1,7*%
%TO.N,SPST_PIN_7*%
X128558000Y-47919000D03*
%TO.P,RV1,8*%
%TO.N,SPST_PIN_8*%
X128558000Y-52919000D03*
%TD*%
D23*
%TO.N,-9V*%
X145796000Y-53848000D02*
X143645700Y-53848000D01*
X143645700Y-53848000D02*
X140517700Y-50720000D01*
X140517700Y-50720000D02*
X136652000Y-50720000D01*
X150876000Y-41148000D02*
X150876000Y-39697700D01*
X150876000Y-39697700D02*
X149352000Y-38173700D01*
X149352000Y-38173700D02*
X149352000Y-31940000D01*
%TO.N,V_GND*%
X122308000Y-52919000D02*
X119808000Y-52919000D01*
X136652000Y-45720000D02*
X136652000Y-47370300D01*
X144780000Y-58928000D02*
X144780000Y-58246400D01*
X144780000Y-58246400D02*
X138904000Y-52370400D01*
X138904000Y-52370400D02*
X135894000Y-52370400D01*
X135894000Y-52370400D02*
X135001700Y-51478100D01*
X135001700Y-51478100D02*
X135001700Y-49020600D01*
X135001700Y-49020600D02*
X136652000Y-47370300D01*
%TO.N,Net-(C3-Pad2)*%
X119808000Y-50419000D02*
X118346900Y-51880100D01*
X118346900Y-51880100D02*
X118346900Y-53493100D01*
X118346900Y-53493100D02*
X120194300Y-55340500D01*
X120194300Y-55340500D02*
X126745400Y-55340500D01*
X126745400Y-55340500D02*
X129106700Y-57701800D01*
X129106700Y-57701800D02*
X138546200Y-57701800D01*
X138546200Y-57701800D02*
X140208000Y-56040000D01*
%TO.N,Net-(C3-Pad1)*%
X149860000Y-58928000D02*
X149860000Y-60981300D01*
X149860000Y-60981300D02*
X145352800Y-65488500D01*
X145352800Y-65488500D02*
X140759500Y-65488500D01*
X140759500Y-65488500D02*
X140208000Y-66040000D01*
%TO.N,Net-(C4-Pad1)*%
X149860000Y-63282800D02*
X146702700Y-66440100D01*
X146702700Y-66440100D02*
X143521600Y-66440100D01*
X143521600Y-66440100D02*
X142215100Y-67746600D01*
X142215100Y-67746600D02*
X135310600Y-67746600D01*
X135310600Y-67746600D02*
X133604000Y-66040000D01*
X149860000Y-63282800D02*
X149860000Y-62557700D01*
X149860000Y-64008000D02*
X149860000Y-63282800D01*
X153416000Y-53848000D02*
X153416000Y-59001700D01*
X153416000Y-59001700D02*
X149860000Y-62557700D01*
%TO.N,Net-(C4-Pad2)*%
X133604000Y-56040000D02*
X129060700Y-56040000D01*
X129060700Y-56040000D02*
X123439700Y-50419000D01*
X123439700Y-50419000D02*
X122308000Y-50419000D01*
%TO.N,Net-(D1-Pad2)*%
X139700000Y-27940000D02*
X136652000Y-27940000D01*
X136652000Y-27940000D02*
X136144000Y-28448000D01*
%TO.N,Net-(R7-Pad1)*%
X140589000Y-69977000D02*
X142039300Y-69977000D01*
X142039300Y-69977000D02*
X142640400Y-70578100D01*
X142640400Y-70578100D02*
X147286100Y-70578100D01*
X147286100Y-70578100D02*
X149860000Y-73152000D01*
%TO.N,Net-(J2-PadT)*%
X120777000Y-67056000D02*
X123727300Y-67056000D01*
X123727300Y-67056000D02*
X130331300Y-73660000D01*
X130331300Y-73660000D02*
X135509000Y-73660000D01*
%TO.N,Net-(J2-PadR)*%
X131924800Y-64205900D02*
X127527300Y-59808400D01*
X127527300Y-59808400D02*
X127527300Y-57256000D01*
X124877000Y-57256000D02*
X127527300Y-57256000D01*
X151565700Y-48967300D02*
X151765000Y-48768000D01*
X151765000Y-48768000D02*
X153416000Y-48768000D01*
X151565700Y-54209300D02*
X151565700Y-48967300D01*
X141569100Y-64205900D02*
X151565700Y-54209300D01*
X131924800Y-64205900D02*
X141569100Y-64205900D01*
X132715000Y-69977000D02*
X135509000Y-69977000D01*
X130810000Y-63119000D02*
X130810000Y-67818000D01*
X130810000Y-67818000D02*
X132715000Y-69977000D01*
%TO.N,SPST_PIN_7*%
X128558000Y-47919000D02*
X130626100Y-47919000D01*
X130626100Y-47919000D02*
X149352000Y-29193100D01*
X149352000Y-29193100D02*
X149352000Y-27940000D01*
%TO.N,SPST_PIN_8*%
X151565700Y-45774700D02*
X152019000Y-46228000D01*
X151565700Y-44377700D02*
X151565700Y-45774700D01*
X152019000Y-46228000D02*
X153416000Y-46228000D01*
X145796000Y-38608000D02*
X151565700Y-44377700D01*
X145796000Y-36576000D02*
X145796000Y-38608000D01*
X138176000Y-34544000D02*
X136652000Y-34544000D01*
X144780000Y-27940000D02*
X138176000Y-34544000D01*
%TD*%
M02*
