%TF.GenerationSoftware,KiCad,Pcbnew,(5.1.6)-1*%
%TF.CreationDate,2020-06-12T21:02:23-04:00*%
%TF.ProjectId,cMoy,634d6f79-2e6b-4696-9361-645f70636258,rev?*%
%TF.SameCoordinates,Original*%
%TF.FileFunction,Legend,Top*%
%TF.FilePolarity,Positive*%
%FSLAX46Y46*%
G04 Gerber Fmt 4.6, Leading zero omitted, Abs format (unit mm)*
G04 Created by KiCad (PCBNEW (5.1.6)-1) date 2020-06-12 21:02:23*
%MOMM*%
%LPD*%
G01*
G04 APERTURE LIST*
%ADD10C,0.120000*%
%ADD11C,0.150000*%
%ADD12C,0.200000*%
%ADD13C,0.254000*%
G04 APERTURE END LIST*
D10*
%TO.C,C1*%
X141772000Y-37044000D02*
G75*
G03*
X141772000Y-37044000I-5120000J0D01*
G01*
X141732000Y-37044000D02*
X131572000Y-37044000D01*
X141732000Y-37084000D02*
X131572000Y-37084000D01*
X141732000Y-37124000D02*
X131572000Y-37124000D01*
X141731000Y-37164000D02*
X131573000Y-37164000D01*
X141730000Y-37204000D02*
X131574000Y-37204000D01*
X141729000Y-37244000D02*
X131575000Y-37244000D01*
X141727000Y-37284000D02*
X131577000Y-37284000D01*
X141725000Y-37324000D02*
X131579000Y-37324000D01*
X141722000Y-37364000D02*
X131582000Y-37364000D01*
X141720000Y-37404000D02*
X131584000Y-37404000D01*
X141717000Y-37444000D02*
X131587000Y-37444000D01*
X141714000Y-37484000D02*
X131590000Y-37484000D01*
X141710000Y-37524000D02*
X131594000Y-37524000D01*
X141706000Y-37564000D02*
X131598000Y-37564000D01*
X141702000Y-37604000D02*
X131602000Y-37604000D01*
X141697000Y-37644000D02*
X131607000Y-37644000D01*
X141692000Y-37684000D02*
X131612000Y-37684000D01*
X141687000Y-37724000D02*
X131617000Y-37724000D01*
X141682000Y-37765000D02*
X131622000Y-37765000D01*
X141676000Y-37805000D02*
X131628000Y-37805000D01*
X141670000Y-37845000D02*
X131634000Y-37845000D01*
X141663000Y-37885000D02*
X131641000Y-37885000D01*
X141656000Y-37925000D02*
X131648000Y-37925000D01*
X141649000Y-37965000D02*
X131655000Y-37965000D01*
X141642000Y-38005000D02*
X131662000Y-38005000D01*
X141634000Y-38045000D02*
X131670000Y-38045000D01*
X141626000Y-38085000D02*
X131678000Y-38085000D01*
X141617000Y-38125000D02*
X131687000Y-38125000D01*
X141608000Y-38165000D02*
X131696000Y-38165000D01*
X141599000Y-38205000D02*
X131705000Y-38205000D01*
X141590000Y-38245000D02*
X131714000Y-38245000D01*
X141580000Y-38285000D02*
X131724000Y-38285000D01*
X141570000Y-38325000D02*
X137893000Y-38325000D01*
X135411000Y-38325000D02*
X131734000Y-38325000D01*
X141559000Y-38365000D02*
X137893000Y-38365000D01*
X135411000Y-38365000D02*
X131745000Y-38365000D01*
X141549000Y-38405000D02*
X137893000Y-38405000D01*
X135411000Y-38405000D02*
X131755000Y-38405000D01*
X141537000Y-38445000D02*
X137893000Y-38445000D01*
X135411000Y-38445000D02*
X131767000Y-38445000D01*
X141526000Y-38485000D02*
X137893000Y-38485000D01*
X135411000Y-38485000D02*
X131778000Y-38485000D01*
X141514000Y-38525000D02*
X137893000Y-38525000D01*
X135411000Y-38525000D02*
X131790000Y-38525000D01*
X141502000Y-38565000D02*
X137893000Y-38565000D01*
X135411000Y-38565000D02*
X131802000Y-38565000D01*
X141489000Y-38605000D02*
X137893000Y-38605000D01*
X135411000Y-38605000D02*
X131815000Y-38605000D01*
X141476000Y-38645000D02*
X137893000Y-38645000D01*
X135411000Y-38645000D02*
X131828000Y-38645000D01*
X141463000Y-38685000D02*
X137893000Y-38685000D01*
X135411000Y-38685000D02*
X131841000Y-38685000D01*
X141449000Y-38725000D02*
X137893000Y-38725000D01*
X135411000Y-38725000D02*
X131855000Y-38725000D01*
X141435000Y-38765000D02*
X137893000Y-38765000D01*
X135411000Y-38765000D02*
X131869000Y-38765000D01*
X141420000Y-38805000D02*
X137893000Y-38805000D01*
X135411000Y-38805000D02*
X131884000Y-38805000D01*
X141406000Y-38845000D02*
X137893000Y-38845000D01*
X135411000Y-38845000D02*
X131898000Y-38845000D01*
X141390000Y-38885000D02*
X137893000Y-38885000D01*
X135411000Y-38885000D02*
X131914000Y-38885000D01*
X141375000Y-38925000D02*
X137893000Y-38925000D01*
X135411000Y-38925000D02*
X131929000Y-38925000D01*
X141359000Y-38965000D02*
X137893000Y-38965000D01*
X135411000Y-38965000D02*
X131945000Y-38965000D01*
X141342000Y-39005000D02*
X137893000Y-39005000D01*
X135411000Y-39005000D02*
X131962000Y-39005000D01*
X141326000Y-39045000D02*
X137893000Y-39045000D01*
X135411000Y-39045000D02*
X131978000Y-39045000D01*
X141309000Y-39085000D02*
X137893000Y-39085000D01*
X135411000Y-39085000D02*
X131995000Y-39085000D01*
X141291000Y-39125000D02*
X137893000Y-39125000D01*
X135411000Y-39125000D02*
X132013000Y-39125000D01*
X141273000Y-39165000D02*
X137893000Y-39165000D01*
X135411000Y-39165000D02*
X132031000Y-39165000D01*
X141255000Y-39205000D02*
X137893000Y-39205000D01*
X135411000Y-39205000D02*
X132049000Y-39205000D01*
X141236000Y-39245000D02*
X137893000Y-39245000D01*
X135411000Y-39245000D02*
X132068000Y-39245000D01*
X141216000Y-39285000D02*
X137893000Y-39285000D01*
X135411000Y-39285000D02*
X132088000Y-39285000D01*
X141197000Y-39325000D02*
X137893000Y-39325000D01*
X135411000Y-39325000D02*
X132107000Y-39325000D01*
X141177000Y-39365000D02*
X137893000Y-39365000D01*
X135411000Y-39365000D02*
X132127000Y-39365000D01*
X141156000Y-39405000D02*
X137893000Y-39405000D01*
X135411000Y-39405000D02*
X132148000Y-39405000D01*
X141135000Y-39445000D02*
X137893000Y-39445000D01*
X135411000Y-39445000D02*
X132169000Y-39445000D01*
X141114000Y-39485000D02*
X137893000Y-39485000D01*
X135411000Y-39485000D02*
X132190000Y-39485000D01*
X141092000Y-39525000D02*
X137893000Y-39525000D01*
X135411000Y-39525000D02*
X132212000Y-39525000D01*
X141069000Y-39565000D02*
X137893000Y-39565000D01*
X135411000Y-39565000D02*
X132235000Y-39565000D01*
X141047000Y-39605000D02*
X137893000Y-39605000D01*
X135411000Y-39605000D02*
X132257000Y-39605000D01*
X141023000Y-39645000D02*
X137893000Y-39645000D01*
X135411000Y-39645000D02*
X132281000Y-39645000D01*
X140999000Y-39685000D02*
X137893000Y-39685000D01*
X135411000Y-39685000D02*
X132305000Y-39685000D01*
X140975000Y-39725000D02*
X137893000Y-39725000D01*
X135411000Y-39725000D02*
X132329000Y-39725000D01*
X140950000Y-39765000D02*
X137893000Y-39765000D01*
X135411000Y-39765000D02*
X132354000Y-39765000D01*
X140925000Y-39805000D02*
X137893000Y-39805000D01*
X135411000Y-39805000D02*
X132379000Y-39805000D01*
X140899000Y-39845000D02*
X137893000Y-39845000D01*
X135411000Y-39845000D02*
X132405000Y-39845000D01*
X140873000Y-39885000D02*
X137893000Y-39885000D01*
X135411000Y-39885000D02*
X132431000Y-39885000D01*
X140846000Y-39925000D02*
X137893000Y-39925000D01*
X135411000Y-39925000D02*
X132458000Y-39925000D01*
X140818000Y-39965000D02*
X137893000Y-39965000D01*
X135411000Y-39965000D02*
X132486000Y-39965000D01*
X140790000Y-40005000D02*
X137893000Y-40005000D01*
X135411000Y-40005000D02*
X132514000Y-40005000D01*
X140762000Y-40045000D02*
X137893000Y-40045000D01*
X135411000Y-40045000D02*
X132542000Y-40045000D01*
X140732000Y-40085000D02*
X137893000Y-40085000D01*
X135411000Y-40085000D02*
X132572000Y-40085000D01*
X140702000Y-40125000D02*
X137893000Y-40125000D01*
X135411000Y-40125000D02*
X132602000Y-40125000D01*
X140672000Y-40165000D02*
X137893000Y-40165000D01*
X135411000Y-40165000D02*
X132632000Y-40165000D01*
X140641000Y-40205000D02*
X137893000Y-40205000D01*
X135411000Y-40205000D02*
X132663000Y-40205000D01*
X140609000Y-40245000D02*
X137893000Y-40245000D01*
X135411000Y-40245000D02*
X132695000Y-40245000D01*
X140577000Y-40285000D02*
X137893000Y-40285000D01*
X135411000Y-40285000D02*
X132727000Y-40285000D01*
X140544000Y-40325000D02*
X137893000Y-40325000D01*
X135411000Y-40325000D02*
X132760000Y-40325000D01*
X140510000Y-40365000D02*
X137893000Y-40365000D01*
X135411000Y-40365000D02*
X132794000Y-40365000D01*
X140476000Y-40405000D02*
X137893000Y-40405000D01*
X135411000Y-40405000D02*
X132828000Y-40405000D01*
X140441000Y-40445000D02*
X137893000Y-40445000D01*
X135411000Y-40445000D02*
X132863000Y-40445000D01*
X140405000Y-40485000D02*
X137893000Y-40485000D01*
X135411000Y-40485000D02*
X132899000Y-40485000D01*
X140368000Y-40525000D02*
X137893000Y-40525000D01*
X135411000Y-40525000D02*
X132936000Y-40525000D01*
X140331000Y-40565000D02*
X137893000Y-40565000D01*
X135411000Y-40565000D02*
X132973000Y-40565000D01*
X140292000Y-40605000D02*
X137893000Y-40605000D01*
X135411000Y-40605000D02*
X133012000Y-40605000D01*
X140253000Y-40645000D02*
X137893000Y-40645000D01*
X135411000Y-40645000D02*
X133051000Y-40645000D01*
X140213000Y-40685000D02*
X137893000Y-40685000D01*
X135411000Y-40685000D02*
X133091000Y-40685000D01*
X140172000Y-40725000D02*
X137893000Y-40725000D01*
X135411000Y-40725000D02*
X133132000Y-40725000D01*
X140130000Y-40765000D02*
X137893000Y-40765000D01*
X135411000Y-40765000D02*
X133174000Y-40765000D01*
X140088000Y-40805000D02*
X133216000Y-40805000D01*
X140044000Y-40845000D02*
X133260000Y-40845000D01*
X139999000Y-40885000D02*
X133305000Y-40885000D01*
X139953000Y-40925000D02*
X133351000Y-40925000D01*
X139906000Y-40965000D02*
X133398000Y-40965000D01*
X139858000Y-41005000D02*
X133446000Y-41005000D01*
X139808000Y-41045000D02*
X133496000Y-41045000D01*
X139758000Y-41085000D02*
X133546000Y-41085000D01*
X139706000Y-41125000D02*
X133598000Y-41125000D01*
X139652000Y-41165000D02*
X133652000Y-41165000D01*
X139597000Y-41205000D02*
X133707000Y-41205000D01*
X139541000Y-41245000D02*
X133763000Y-41245000D01*
X139482000Y-41285000D02*
X133822000Y-41285000D01*
X139422000Y-41325000D02*
X133882000Y-41325000D01*
X139361000Y-41365000D02*
X133943000Y-41365000D01*
X139297000Y-41405000D02*
X134007000Y-41405000D01*
X139231000Y-41445000D02*
X134073000Y-41445000D01*
X139162000Y-41485000D02*
X134142000Y-41485000D01*
X139091000Y-41525000D02*
X134213000Y-41525000D01*
X139017000Y-41565000D02*
X134287000Y-41565000D01*
X138941000Y-41605000D02*
X134363000Y-41605000D01*
X138861000Y-41645000D02*
X134443000Y-41645000D01*
X138777000Y-41685000D02*
X134527000Y-41685000D01*
X138689000Y-41725000D02*
X134615000Y-41725000D01*
X138596000Y-41765000D02*
X134708000Y-41765000D01*
X138498000Y-41805000D02*
X134806000Y-41805000D01*
X138394000Y-41845000D02*
X134910000Y-41845000D01*
X138282000Y-41885000D02*
X135022000Y-41885000D01*
X138162000Y-41925000D02*
X135142000Y-41925000D01*
X138030000Y-41965000D02*
X135274000Y-41965000D01*
X137882000Y-42005000D02*
X135422000Y-42005000D01*
X137714000Y-42045000D02*
X135590000Y-42045000D01*
X137514000Y-42085000D02*
X135790000Y-42085000D01*
X137251000Y-42125000D02*
X136053000Y-42125000D01*
X139527000Y-31564354D02*
X139527000Y-32564354D01*
X140027000Y-32064354D02*
X139027000Y-32064354D01*
%TO.C,C2*%
X140027000Y-43240354D02*
X139027000Y-43240354D01*
X139527000Y-42740354D02*
X139527000Y-43740354D01*
X137251000Y-53301000D02*
X136053000Y-53301000D01*
X137514000Y-53261000D02*
X135790000Y-53261000D01*
X137714000Y-53221000D02*
X135590000Y-53221000D01*
X137882000Y-53181000D02*
X135422000Y-53181000D01*
X138030000Y-53141000D02*
X135274000Y-53141000D01*
X138162000Y-53101000D02*
X135142000Y-53101000D01*
X138282000Y-53061000D02*
X135022000Y-53061000D01*
X138394000Y-53021000D02*
X134910000Y-53021000D01*
X138498000Y-52981000D02*
X134806000Y-52981000D01*
X138596000Y-52941000D02*
X134708000Y-52941000D01*
X138689000Y-52901000D02*
X134615000Y-52901000D01*
X138777000Y-52861000D02*
X134527000Y-52861000D01*
X138861000Y-52821000D02*
X134443000Y-52821000D01*
X138941000Y-52781000D02*
X134363000Y-52781000D01*
X139017000Y-52741000D02*
X134287000Y-52741000D01*
X139091000Y-52701000D02*
X134213000Y-52701000D01*
X139162000Y-52661000D02*
X134142000Y-52661000D01*
X139231000Y-52621000D02*
X134073000Y-52621000D01*
X139297000Y-52581000D02*
X134007000Y-52581000D01*
X139361000Y-52541000D02*
X133943000Y-52541000D01*
X139422000Y-52501000D02*
X133882000Y-52501000D01*
X139482000Y-52461000D02*
X133822000Y-52461000D01*
X139541000Y-52421000D02*
X133763000Y-52421000D01*
X139597000Y-52381000D02*
X133707000Y-52381000D01*
X139652000Y-52341000D02*
X133652000Y-52341000D01*
X139706000Y-52301000D02*
X133598000Y-52301000D01*
X139758000Y-52261000D02*
X133546000Y-52261000D01*
X139808000Y-52221000D02*
X133496000Y-52221000D01*
X139858000Y-52181000D02*
X133446000Y-52181000D01*
X139906000Y-52141000D02*
X133398000Y-52141000D01*
X139953000Y-52101000D02*
X133351000Y-52101000D01*
X139999000Y-52061000D02*
X133305000Y-52061000D01*
X140044000Y-52021000D02*
X133260000Y-52021000D01*
X140088000Y-51981000D02*
X133216000Y-51981000D01*
X135411000Y-51941000D02*
X133174000Y-51941000D01*
X140130000Y-51941000D02*
X137893000Y-51941000D01*
X135411000Y-51901000D02*
X133132000Y-51901000D01*
X140172000Y-51901000D02*
X137893000Y-51901000D01*
X135411000Y-51861000D02*
X133091000Y-51861000D01*
X140213000Y-51861000D02*
X137893000Y-51861000D01*
X135411000Y-51821000D02*
X133051000Y-51821000D01*
X140253000Y-51821000D02*
X137893000Y-51821000D01*
X135411000Y-51781000D02*
X133012000Y-51781000D01*
X140292000Y-51781000D02*
X137893000Y-51781000D01*
X135411000Y-51741000D02*
X132973000Y-51741000D01*
X140331000Y-51741000D02*
X137893000Y-51741000D01*
X135411000Y-51701000D02*
X132936000Y-51701000D01*
X140368000Y-51701000D02*
X137893000Y-51701000D01*
X135411000Y-51661000D02*
X132899000Y-51661000D01*
X140405000Y-51661000D02*
X137893000Y-51661000D01*
X135411000Y-51621000D02*
X132863000Y-51621000D01*
X140441000Y-51621000D02*
X137893000Y-51621000D01*
X135411000Y-51581000D02*
X132828000Y-51581000D01*
X140476000Y-51581000D02*
X137893000Y-51581000D01*
X135411000Y-51541000D02*
X132794000Y-51541000D01*
X140510000Y-51541000D02*
X137893000Y-51541000D01*
X135411000Y-51501000D02*
X132760000Y-51501000D01*
X140544000Y-51501000D02*
X137893000Y-51501000D01*
X135411000Y-51461000D02*
X132727000Y-51461000D01*
X140577000Y-51461000D02*
X137893000Y-51461000D01*
X135411000Y-51421000D02*
X132695000Y-51421000D01*
X140609000Y-51421000D02*
X137893000Y-51421000D01*
X135411000Y-51381000D02*
X132663000Y-51381000D01*
X140641000Y-51381000D02*
X137893000Y-51381000D01*
X135411000Y-51341000D02*
X132632000Y-51341000D01*
X140672000Y-51341000D02*
X137893000Y-51341000D01*
X135411000Y-51301000D02*
X132602000Y-51301000D01*
X140702000Y-51301000D02*
X137893000Y-51301000D01*
X135411000Y-51261000D02*
X132572000Y-51261000D01*
X140732000Y-51261000D02*
X137893000Y-51261000D01*
X135411000Y-51221000D02*
X132542000Y-51221000D01*
X140762000Y-51221000D02*
X137893000Y-51221000D01*
X135411000Y-51181000D02*
X132514000Y-51181000D01*
X140790000Y-51181000D02*
X137893000Y-51181000D01*
X135411000Y-51141000D02*
X132486000Y-51141000D01*
X140818000Y-51141000D02*
X137893000Y-51141000D01*
X135411000Y-51101000D02*
X132458000Y-51101000D01*
X140846000Y-51101000D02*
X137893000Y-51101000D01*
X135411000Y-51061000D02*
X132431000Y-51061000D01*
X140873000Y-51061000D02*
X137893000Y-51061000D01*
X135411000Y-51021000D02*
X132405000Y-51021000D01*
X140899000Y-51021000D02*
X137893000Y-51021000D01*
X135411000Y-50981000D02*
X132379000Y-50981000D01*
X140925000Y-50981000D02*
X137893000Y-50981000D01*
X135411000Y-50941000D02*
X132354000Y-50941000D01*
X140950000Y-50941000D02*
X137893000Y-50941000D01*
X135411000Y-50901000D02*
X132329000Y-50901000D01*
X140975000Y-50901000D02*
X137893000Y-50901000D01*
X135411000Y-50861000D02*
X132305000Y-50861000D01*
X140999000Y-50861000D02*
X137893000Y-50861000D01*
X135411000Y-50821000D02*
X132281000Y-50821000D01*
X141023000Y-50821000D02*
X137893000Y-50821000D01*
X135411000Y-50781000D02*
X132257000Y-50781000D01*
X141047000Y-50781000D02*
X137893000Y-50781000D01*
X135411000Y-50741000D02*
X132235000Y-50741000D01*
X141069000Y-50741000D02*
X137893000Y-50741000D01*
X135411000Y-50701000D02*
X132212000Y-50701000D01*
X141092000Y-50701000D02*
X137893000Y-50701000D01*
X135411000Y-50661000D02*
X132190000Y-50661000D01*
X141114000Y-50661000D02*
X137893000Y-50661000D01*
X135411000Y-50621000D02*
X132169000Y-50621000D01*
X141135000Y-50621000D02*
X137893000Y-50621000D01*
X135411000Y-50581000D02*
X132148000Y-50581000D01*
X141156000Y-50581000D02*
X137893000Y-50581000D01*
X135411000Y-50541000D02*
X132127000Y-50541000D01*
X141177000Y-50541000D02*
X137893000Y-50541000D01*
X135411000Y-50501000D02*
X132107000Y-50501000D01*
X141197000Y-50501000D02*
X137893000Y-50501000D01*
X135411000Y-50461000D02*
X132088000Y-50461000D01*
X141216000Y-50461000D02*
X137893000Y-50461000D01*
X135411000Y-50421000D02*
X132068000Y-50421000D01*
X141236000Y-50421000D02*
X137893000Y-50421000D01*
X135411000Y-50381000D02*
X132049000Y-50381000D01*
X141255000Y-50381000D02*
X137893000Y-50381000D01*
X135411000Y-50341000D02*
X132031000Y-50341000D01*
X141273000Y-50341000D02*
X137893000Y-50341000D01*
X135411000Y-50301000D02*
X132013000Y-50301000D01*
X141291000Y-50301000D02*
X137893000Y-50301000D01*
X135411000Y-50261000D02*
X131995000Y-50261000D01*
X141309000Y-50261000D02*
X137893000Y-50261000D01*
X135411000Y-50221000D02*
X131978000Y-50221000D01*
X141326000Y-50221000D02*
X137893000Y-50221000D01*
X135411000Y-50181000D02*
X131962000Y-50181000D01*
X141342000Y-50181000D02*
X137893000Y-50181000D01*
X135411000Y-50141000D02*
X131945000Y-50141000D01*
X141359000Y-50141000D02*
X137893000Y-50141000D01*
X135411000Y-50101000D02*
X131929000Y-50101000D01*
X141375000Y-50101000D02*
X137893000Y-50101000D01*
X135411000Y-50061000D02*
X131914000Y-50061000D01*
X141390000Y-50061000D02*
X137893000Y-50061000D01*
X135411000Y-50021000D02*
X131898000Y-50021000D01*
X141406000Y-50021000D02*
X137893000Y-50021000D01*
X135411000Y-49981000D02*
X131884000Y-49981000D01*
X141420000Y-49981000D02*
X137893000Y-49981000D01*
X135411000Y-49941000D02*
X131869000Y-49941000D01*
X141435000Y-49941000D02*
X137893000Y-49941000D01*
X135411000Y-49901000D02*
X131855000Y-49901000D01*
X141449000Y-49901000D02*
X137893000Y-49901000D01*
X135411000Y-49861000D02*
X131841000Y-49861000D01*
X141463000Y-49861000D02*
X137893000Y-49861000D01*
X135411000Y-49821000D02*
X131828000Y-49821000D01*
X141476000Y-49821000D02*
X137893000Y-49821000D01*
X135411000Y-49781000D02*
X131815000Y-49781000D01*
X141489000Y-49781000D02*
X137893000Y-49781000D01*
X135411000Y-49741000D02*
X131802000Y-49741000D01*
X141502000Y-49741000D02*
X137893000Y-49741000D01*
X135411000Y-49701000D02*
X131790000Y-49701000D01*
X141514000Y-49701000D02*
X137893000Y-49701000D01*
X135411000Y-49661000D02*
X131778000Y-49661000D01*
X141526000Y-49661000D02*
X137893000Y-49661000D01*
X135411000Y-49621000D02*
X131767000Y-49621000D01*
X141537000Y-49621000D02*
X137893000Y-49621000D01*
X135411000Y-49581000D02*
X131755000Y-49581000D01*
X141549000Y-49581000D02*
X137893000Y-49581000D01*
X135411000Y-49541000D02*
X131745000Y-49541000D01*
X141559000Y-49541000D02*
X137893000Y-49541000D01*
X135411000Y-49501000D02*
X131734000Y-49501000D01*
X141570000Y-49501000D02*
X137893000Y-49501000D01*
X141580000Y-49461000D02*
X131724000Y-49461000D01*
X141590000Y-49421000D02*
X131714000Y-49421000D01*
X141599000Y-49381000D02*
X131705000Y-49381000D01*
X141608000Y-49341000D02*
X131696000Y-49341000D01*
X141617000Y-49301000D02*
X131687000Y-49301000D01*
X141626000Y-49261000D02*
X131678000Y-49261000D01*
X141634000Y-49221000D02*
X131670000Y-49221000D01*
X141642000Y-49181000D02*
X131662000Y-49181000D01*
X141649000Y-49141000D02*
X131655000Y-49141000D01*
X141656000Y-49101000D02*
X131648000Y-49101000D01*
X141663000Y-49061000D02*
X131641000Y-49061000D01*
X141670000Y-49021000D02*
X131634000Y-49021000D01*
X141676000Y-48981000D02*
X131628000Y-48981000D01*
X141682000Y-48941000D02*
X131622000Y-48941000D01*
X141687000Y-48900000D02*
X131617000Y-48900000D01*
X141692000Y-48860000D02*
X131612000Y-48860000D01*
X141697000Y-48820000D02*
X131607000Y-48820000D01*
X141702000Y-48780000D02*
X131602000Y-48780000D01*
X141706000Y-48740000D02*
X131598000Y-48740000D01*
X141710000Y-48700000D02*
X131594000Y-48700000D01*
X141714000Y-48660000D02*
X131590000Y-48660000D01*
X141717000Y-48620000D02*
X131587000Y-48620000D01*
X141720000Y-48580000D02*
X131584000Y-48580000D01*
X141722000Y-48540000D02*
X131582000Y-48540000D01*
X141725000Y-48500000D02*
X131579000Y-48500000D01*
X141727000Y-48460000D02*
X131577000Y-48460000D01*
X141729000Y-48420000D02*
X131575000Y-48420000D01*
X141730000Y-48380000D02*
X131574000Y-48380000D01*
X141731000Y-48340000D02*
X131573000Y-48340000D01*
X141732000Y-48300000D02*
X131572000Y-48300000D01*
X141732000Y-48260000D02*
X131572000Y-48260000D01*
X141732000Y-48220000D02*
X131572000Y-48220000D01*
X141772000Y-48220000D02*
G75*
G03*
X141772000Y-48220000I-5120000J0D01*
G01*
%TO.C,C3*%
X138088000Y-67660000D02*
X138088000Y-54420000D01*
X142328000Y-67660000D02*
X142328000Y-54420000D01*
X138088000Y-67660000D02*
X142328000Y-67660000D01*
X138088000Y-54420000D02*
X142328000Y-54420000D01*
%TO.C,C4*%
X131484000Y-54420000D02*
X135724000Y-54420000D01*
X131484000Y-67660000D02*
X135724000Y-67660000D01*
X135724000Y-67660000D02*
X135724000Y-54420000D01*
X131484000Y-67660000D02*
X131484000Y-54420000D01*
%TO.C,D1*%
X133314000Y-29528000D02*
X133314000Y-29684000D01*
X133314000Y-27212000D02*
X133314000Y-27368000D01*
X136546335Y-27369392D02*
G75*
G03*
X133314000Y-27212484I-1672335J-1078608D01*
G01*
X136546335Y-29526608D02*
G75*
G02*
X133314000Y-29683516I-1672335J1078608D01*
G01*
X135915130Y-27368163D02*
G75*
G03*
X133833039Y-27368000I-1041130J-1079837D01*
G01*
X135915130Y-29527837D02*
G75*
G02*
X133833039Y-29528000I-1041130J1079837D01*
G01*
%TO.C,R1*%
X143410000Y-27940000D02*
X140800000Y-27940000D01*
X146150000Y-27940000D02*
G75*
G03*
X146150000Y-27940000I-1370000J0D01*
G01*
%TO.C,R2*%
X147166000Y-36576000D02*
G75*
G03*
X147166000Y-36576000I-1370000J0D01*
G01*
X147166000Y-36576000D02*
X149776000Y-36576000D01*
%TO.C,R3*%
X147166000Y-41148000D02*
X149776000Y-41148000D01*
X147166000Y-41148000D02*
G75*
G03*
X147166000Y-41148000I-1370000J0D01*
G01*
%TO.C,R4*%
X146150000Y-58928000D02*
G75*
G03*
X146150000Y-58928000I-1370000J0D01*
G01*
X146150000Y-58928000D02*
X148760000Y-58928000D01*
%TO.C,R5*%
X146150000Y-64008000D02*
X148760000Y-64008000D01*
X146150000Y-64008000D02*
G75*
G03*
X146150000Y-64008000I-1370000J0D01*
G01*
%TO.C,R6*%
X144780000Y-71782000D02*
X144780000Y-69172000D01*
X146150000Y-73152000D02*
G75*
G03*
X146150000Y-73152000I-1370000J0D01*
G01*
%TO.C,R7*%
X151230000Y-73152000D02*
G75*
G03*
X151230000Y-73152000I-1370000J0D01*
G01*
X149860000Y-71782000D02*
X149860000Y-69172000D01*
%TO.C,R8*%
X136879000Y-73660000D02*
G75*
G03*
X136879000Y-73660000I-1370000J0D01*
G01*
X136879000Y-73660000D02*
X139489000Y-73660000D01*
%TO.C,R9*%
X136879000Y-69977000D02*
X139489000Y-69977000D01*
X136879000Y-69977000D02*
G75*
G03*
X136879000Y-69977000I-1370000J0D01*
G01*
%TO.C,U1*%
X154856000Y-44838000D02*
X144356000Y-44838000D01*
X154856000Y-55238000D02*
X154856000Y-44838000D01*
X144356000Y-55238000D02*
X154856000Y-55238000D01*
X144356000Y-44838000D02*
X144356000Y-55238000D01*
X151856000Y-44898000D02*
X150606000Y-44898000D01*
X151856000Y-55178000D02*
X151856000Y-44898000D01*
X147356000Y-55178000D02*
X151856000Y-55178000D01*
X147356000Y-44898000D02*
X147356000Y-55178000D01*
X148606000Y-44898000D02*
X147356000Y-44898000D01*
X150606000Y-44898000D02*
G75*
G02*
X148606000Y-44898000I-1000000J0D01*
G01*
D11*
%TO.C,J1*%
X111123000Y-42569000D02*
X114723000Y-42569000D01*
X111123000Y-36369000D02*
X111123000Y-42569000D01*
X114723000Y-36369000D02*
X111123000Y-36369000D01*
X114723000Y-45069000D02*
X114723000Y-33269000D01*
X118273000Y-45069000D02*
X114723000Y-45069000D01*
X126523000Y-45069000D02*
X122773000Y-45069000D01*
X129223000Y-45069000D02*
X129123000Y-45069000D01*
X129223000Y-33269000D02*
X129223000Y-45069000D01*
X126823000Y-33269000D02*
X129223000Y-33269000D01*
X114723000Y-33269000D02*
X122473000Y-33269000D01*
D10*
X120523000Y-45569000D02*
X120023000Y-46119000D01*
X120023000Y-46119000D02*
X121023000Y-46119000D01*
X121023000Y-46119000D02*
X120523000Y-45569000D01*
%TO.C,J2*%
X121277000Y-69106000D02*
X120777000Y-68556000D01*
X120277000Y-69106000D02*
X121277000Y-69106000D01*
X120777000Y-68556000D02*
X120277000Y-69106000D01*
D11*
X114977000Y-56256000D02*
X122727000Y-56256000D01*
X127077000Y-56256000D02*
X129477000Y-56256000D01*
X129477000Y-56256000D02*
X129477000Y-68056000D01*
X129477000Y-68056000D02*
X129377000Y-68056000D01*
X126777000Y-68056000D02*
X123027000Y-68056000D01*
X118527000Y-68056000D02*
X114977000Y-68056000D01*
X114977000Y-68056000D02*
X114977000Y-56256000D01*
X114977000Y-59356000D02*
X111377000Y-59356000D01*
X111377000Y-59356000D02*
X111377000Y-65556000D01*
X111377000Y-65556000D02*
X114977000Y-65556000D01*
D12*
%TO.C,RV1*%
X120041000Y-44609000D02*
G75*
G03*
X120041000Y-44609000I-123000J0D01*
G01*
X114808000Y-55796000D02*
X130608000Y-55796000D01*
X114808000Y-53419000D02*
X114808000Y-55796000D01*
X99808000Y-53419000D02*
X114808000Y-53419000D01*
X99808000Y-47419000D02*
X99808000Y-53419000D01*
X114808000Y-47419000D02*
X99808000Y-47419000D01*
X114808000Y-45655000D02*
X114808000Y-47419000D01*
X130608000Y-45655000D02*
X114808000Y-45655000D01*
X130608000Y-55796000D02*
X130608000Y-45655000D01*
%TO.C,BT1*%
D11*
X151330571Y-30725714D02*
X151378190Y-30582857D01*
X151425809Y-30535238D01*
X151521047Y-30487619D01*
X151663904Y-30487619D01*
X151759142Y-30535238D01*
X151806761Y-30582857D01*
X151854380Y-30678095D01*
X151854380Y-31059047D01*
X150854380Y-31059047D01*
X150854380Y-30725714D01*
X150902000Y-30630476D01*
X150949619Y-30582857D01*
X151044857Y-30535238D01*
X151140095Y-30535238D01*
X151235333Y-30582857D01*
X151282952Y-30630476D01*
X151330571Y-30725714D01*
X151330571Y-31059047D01*
X150854380Y-30201904D02*
X150854380Y-29630476D01*
X151854380Y-29916190D02*
X150854380Y-29916190D01*
X151854380Y-28773333D02*
X151854380Y-29344761D01*
X151854380Y-29059047D02*
X150854380Y-29059047D01*
X150997238Y-29154285D01*
X151092476Y-29249523D01*
X151140095Y-29344761D01*
%TO.C,C1*%
X143259142Y-37210666D02*
X143306761Y-37258285D01*
X143354380Y-37401142D01*
X143354380Y-37496380D01*
X143306761Y-37639238D01*
X143211523Y-37734476D01*
X143116285Y-37782095D01*
X142925809Y-37829714D01*
X142782952Y-37829714D01*
X142592476Y-37782095D01*
X142497238Y-37734476D01*
X142402000Y-37639238D01*
X142354380Y-37496380D01*
X142354380Y-37401142D01*
X142402000Y-37258285D01*
X142449619Y-37210666D01*
X143354380Y-36258285D02*
X143354380Y-36829714D01*
X143354380Y-36544000D02*
X142354380Y-36544000D01*
X142497238Y-36639238D01*
X142592476Y-36734476D01*
X142640095Y-36829714D01*
%TO.C,C2*%
X143259142Y-48386666D02*
X143306761Y-48434285D01*
X143354380Y-48577142D01*
X143354380Y-48672380D01*
X143306761Y-48815238D01*
X143211523Y-48910476D01*
X143116285Y-48958095D01*
X142925809Y-49005714D01*
X142782952Y-49005714D01*
X142592476Y-48958095D01*
X142497238Y-48910476D01*
X142402000Y-48815238D01*
X142354380Y-48672380D01*
X142354380Y-48577142D01*
X142402000Y-48434285D01*
X142449619Y-48386666D01*
X142449619Y-48005714D02*
X142402000Y-47958095D01*
X142354380Y-47862857D01*
X142354380Y-47624761D01*
X142402000Y-47529523D01*
X142449619Y-47481904D01*
X142544857Y-47434285D01*
X142640095Y-47434285D01*
X142782952Y-47481904D01*
X143354380Y-48053333D01*
X143354380Y-47434285D01*
%TO.C,C3*%
X137315142Y-61206666D02*
X137362761Y-61254285D01*
X137410380Y-61397142D01*
X137410380Y-61492380D01*
X137362761Y-61635238D01*
X137267523Y-61730476D01*
X137172285Y-61778095D01*
X136981809Y-61825714D01*
X136838952Y-61825714D01*
X136648476Y-61778095D01*
X136553238Y-61730476D01*
X136458000Y-61635238D01*
X136410380Y-61492380D01*
X136410380Y-61397142D01*
X136458000Y-61254285D01*
X136505619Y-61206666D01*
X136410380Y-60873333D02*
X136410380Y-60254285D01*
X136791333Y-60587619D01*
X136791333Y-60444761D01*
X136838952Y-60349523D01*
X136886571Y-60301904D01*
X136981809Y-60254285D01*
X137219904Y-60254285D01*
X137315142Y-60301904D01*
X137362761Y-60349523D01*
X137410380Y-60444761D01*
X137410380Y-60730476D01*
X137362761Y-60825714D01*
X137315142Y-60873333D01*
%TO.C,C4*%
X130711142Y-61206666D02*
X130758761Y-61254285D01*
X130806380Y-61397142D01*
X130806380Y-61492380D01*
X130758761Y-61635238D01*
X130663523Y-61730476D01*
X130568285Y-61778095D01*
X130377809Y-61825714D01*
X130234952Y-61825714D01*
X130044476Y-61778095D01*
X129949238Y-61730476D01*
X129854000Y-61635238D01*
X129806380Y-61492380D01*
X129806380Y-61397142D01*
X129854000Y-61254285D01*
X129901619Y-61206666D01*
X130139714Y-60349523D02*
X130806380Y-60349523D01*
X129758761Y-60587619D02*
X130473047Y-60825714D01*
X130473047Y-60206666D01*
%TO.C,D1*%
X130325904Y-28900380D02*
X130325904Y-27900380D01*
X130564000Y-27900380D01*
X130706857Y-27948000D01*
X130802095Y-28043238D01*
X130849714Y-28138476D01*
X130897333Y-28328952D01*
X130897333Y-28471809D01*
X130849714Y-28662285D01*
X130802095Y-28757523D01*
X130706857Y-28852761D01*
X130564000Y-28900380D01*
X130325904Y-28900380D01*
X131849714Y-28900380D02*
X131278285Y-28900380D01*
X131564000Y-28900380D02*
X131564000Y-27900380D01*
X131468761Y-28043238D01*
X131373523Y-28138476D01*
X131278285Y-28186095D01*
%TO.C,R1*%
X142073333Y-30762380D02*
X141740000Y-30286190D01*
X141501904Y-30762380D02*
X141501904Y-29762380D01*
X141882857Y-29762380D01*
X141978095Y-29810000D01*
X142025714Y-29857619D01*
X142073333Y-29952857D01*
X142073333Y-30095714D01*
X142025714Y-30190952D01*
X141978095Y-30238571D01*
X141882857Y-30286190D01*
X141501904Y-30286190D01*
X143025714Y-30762380D02*
X142454285Y-30762380D01*
X142740000Y-30762380D02*
X142740000Y-29762380D01*
X142644761Y-29905238D01*
X142549523Y-30000476D01*
X142454285Y-30048095D01*
%TO.C,R2*%
X148169333Y-34658380D02*
X147836000Y-34182190D01*
X147597904Y-34658380D02*
X147597904Y-33658380D01*
X147978857Y-33658380D01*
X148074095Y-33706000D01*
X148121714Y-33753619D01*
X148169333Y-33848857D01*
X148169333Y-33991714D01*
X148121714Y-34086952D01*
X148074095Y-34134571D01*
X147978857Y-34182190D01*
X147597904Y-34182190D01*
X148550285Y-33753619D02*
X148597904Y-33706000D01*
X148693142Y-33658380D01*
X148931238Y-33658380D01*
X149026476Y-33706000D01*
X149074095Y-33753619D01*
X149121714Y-33848857D01*
X149121714Y-33944095D01*
X149074095Y-34086952D01*
X148502666Y-34658380D01*
X149121714Y-34658380D01*
%TO.C,R3*%
X148169333Y-39230380D02*
X147836000Y-38754190D01*
X147597904Y-39230380D02*
X147597904Y-38230380D01*
X147978857Y-38230380D01*
X148074095Y-38278000D01*
X148121714Y-38325619D01*
X148169333Y-38420857D01*
X148169333Y-38563714D01*
X148121714Y-38658952D01*
X148074095Y-38706571D01*
X147978857Y-38754190D01*
X147597904Y-38754190D01*
X148502666Y-38230380D02*
X149121714Y-38230380D01*
X148788380Y-38611333D01*
X148931238Y-38611333D01*
X149026476Y-38658952D01*
X149074095Y-38706571D01*
X149121714Y-38801809D01*
X149121714Y-39039904D01*
X149074095Y-39135142D01*
X149026476Y-39182761D01*
X148931238Y-39230380D01*
X148645523Y-39230380D01*
X148550285Y-39182761D01*
X148502666Y-39135142D01*
%TO.C,R4*%
X147153333Y-57010380D02*
X146820000Y-56534190D01*
X146581904Y-57010380D02*
X146581904Y-56010380D01*
X146962857Y-56010380D01*
X147058095Y-56058000D01*
X147105714Y-56105619D01*
X147153333Y-56200857D01*
X147153333Y-56343714D01*
X147105714Y-56438952D01*
X147058095Y-56486571D01*
X146962857Y-56534190D01*
X146581904Y-56534190D01*
X148010476Y-56343714D02*
X148010476Y-57010380D01*
X147772380Y-55962761D02*
X147534285Y-56677047D01*
X148153333Y-56677047D01*
%TO.C,R5*%
X147153333Y-62090380D02*
X146820000Y-61614190D01*
X146581904Y-62090380D02*
X146581904Y-61090380D01*
X146962857Y-61090380D01*
X147058095Y-61138000D01*
X147105714Y-61185619D01*
X147153333Y-61280857D01*
X147153333Y-61423714D01*
X147105714Y-61518952D01*
X147058095Y-61566571D01*
X146962857Y-61614190D01*
X146581904Y-61614190D01*
X148058095Y-61090380D02*
X147581904Y-61090380D01*
X147534285Y-61566571D01*
X147581904Y-61518952D01*
X147677142Y-61471333D01*
X147915238Y-61471333D01*
X148010476Y-61518952D01*
X148058095Y-61566571D01*
X148105714Y-61661809D01*
X148105714Y-61899904D01*
X148058095Y-61995142D01*
X148010476Y-62042761D01*
X147915238Y-62090380D01*
X147677142Y-62090380D01*
X147581904Y-62042761D01*
X147534285Y-61995142D01*
%TO.C,R6*%
X142862380Y-70778666D02*
X142386190Y-71112000D01*
X142862380Y-71350095D02*
X141862380Y-71350095D01*
X141862380Y-70969142D01*
X141910000Y-70873904D01*
X141957619Y-70826285D01*
X142052857Y-70778666D01*
X142195714Y-70778666D01*
X142290952Y-70826285D01*
X142338571Y-70873904D01*
X142386190Y-70969142D01*
X142386190Y-71350095D01*
X141862380Y-69921523D02*
X141862380Y-70112000D01*
X141910000Y-70207238D01*
X141957619Y-70254857D01*
X142100476Y-70350095D01*
X142290952Y-70397714D01*
X142671904Y-70397714D01*
X142767142Y-70350095D01*
X142814761Y-70302476D01*
X142862380Y-70207238D01*
X142862380Y-70016761D01*
X142814761Y-69921523D01*
X142767142Y-69873904D01*
X142671904Y-69826285D01*
X142433809Y-69826285D01*
X142338571Y-69873904D01*
X142290952Y-69921523D01*
X142243333Y-70016761D01*
X142243333Y-70207238D01*
X142290952Y-70302476D01*
X142338571Y-70350095D01*
X142433809Y-70397714D01*
%TO.C,R7*%
X147942380Y-70778666D02*
X147466190Y-71112000D01*
X147942380Y-71350095D02*
X146942380Y-71350095D01*
X146942380Y-70969142D01*
X146990000Y-70873904D01*
X147037619Y-70826285D01*
X147132857Y-70778666D01*
X147275714Y-70778666D01*
X147370952Y-70826285D01*
X147418571Y-70873904D01*
X147466190Y-70969142D01*
X147466190Y-71350095D01*
X146942380Y-70445333D02*
X146942380Y-69778666D01*
X147942380Y-70207238D01*
%TO.C,R8*%
X132294333Y-74112380D02*
X131961000Y-73636190D01*
X131722904Y-74112380D02*
X131722904Y-73112380D01*
X132103857Y-73112380D01*
X132199095Y-73160000D01*
X132246714Y-73207619D01*
X132294333Y-73302857D01*
X132294333Y-73445714D01*
X132246714Y-73540952D01*
X132199095Y-73588571D01*
X132103857Y-73636190D01*
X131722904Y-73636190D01*
X132865761Y-73540952D02*
X132770523Y-73493333D01*
X132722904Y-73445714D01*
X132675285Y-73350476D01*
X132675285Y-73302857D01*
X132722904Y-73207619D01*
X132770523Y-73160000D01*
X132865761Y-73112380D01*
X133056238Y-73112380D01*
X133151476Y-73160000D01*
X133199095Y-73207619D01*
X133246714Y-73302857D01*
X133246714Y-73350476D01*
X133199095Y-73445714D01*
X133151476Y-73493333D01*
X133056238Y-73540952D01*
X132865761Y-73540952D01*
X132770523Y-73588571D01*
X132722904Y-73636190D01*
X132675285Y-73731428D01*
X132675285Y-73921904D01*
X132722904Y-74017142D01*
X132770523Y-74064761D01*
X132865761Y-74112380D01*
X133056238Y-74112380D01*
X133151476Y-74064761D01*
X133199095Y-74017142D01*
X133246714Y-73921904D01*
X133246714Y-73731428D01*
X133199095Y-73636190D01*
X133151476Y-73588571D01*
X133056238Y-73540952D01*
%TO.C,R9*%
X132294333Y-69921380D02*
X131961000Y-69445190D01*
X131722904Y-69921380D02*
X131722904Y-68921380D01*
X132103857Y-68921380D01*
X132199095Y-68969000D01*
X132246714Y-69016619D01*
X132294333Y-69111857D01*
X132294333Y-69254714D01*
X132246714Y-69349952D01*
X132199095Y-69397571D01*
X132103857Y-69445190D01*
X131722904Y-69445190D01*
X132770523Y-69921380D02*
X132961000Y-69921380D01*
X133056238Y-69873761D01*
X133103857Y-69826142D01*
X133199095Y-69683285D01*
X133246714Y-69492809D01*
X133246714Y-69111857D01*
X133199095Y-69016619D01*
X133151476Y-68969000D01*
X133056238Y-68921380D01*
X132865761Y-68921380D01*
X132770523Y-68969000D01*
X132722904Y-69016619D01*
X132675285Y-69111857D01*
X132675285Y-69349952D01*
X132722904Y-69445190D01*
X132770523Y-69492809D01*
X132865761Y-69540428D01*
X133056238Y-69540428D01*
X133151476Y-69492809D01*
X133199095Y-69445190D01*
X133246714Y-69349952D01*
%TO.C,U1*%
X148844095Y-43350380D02*
X148844095Y-44159904D01*
X148891714Y-44255142D01*
X148939333Y-44302761D01*
X149034571Y-44350380D01*
X149225047Y-44350380D01*
X149320285Y-44302761D01*
X149367904Y-44255142D01*
X149415523Y-44159904D01*
X149415523Y-43350380D01*
X150415523Y-44350380D02*
X149844095Y-44350380D01*
X150129809Y-44350380D02*
X150129809Y-43350380D01*
X150034571Y-43493238D01*
X149939333Y-43588476D01*
X149844095Y-43636095D01*
%TO.C,J1*%
X116689666Y-45821380D02*
X116689666Y-46535666D01*
X116642047Y-46678523D01*
X116546809Y-46773761D01*
X116403952Y-46821380D01*
X116308714Y-46821380D01*
X117689666Y-46821380D02*
X117118238Y-46821380D01*
X117403952Y-46821380D02*
X117403952Y-45821380D01*
X117308714Y-45964238D01*
X117213476Y-46059476D01*
X117118238Y-46107095D01*
%TO.C,J2*%
X116943666Y-68808380D02*
X116943666Y-69522666D01*
X116896047Y-69665523D01*
X116800809Y-69760761D01*
X116657952Y-69808380D01*
X116562714Y-69808380D01*
X117372238Y-68903619D02*
X117419857Y-68856000D01*
X117515095Y-68808380D01*
X117753190Y-68808380D01*
X117848428Y-68856000D01*
X117896047Y-68903619D01*
X117943666Y-68998857D01*
X117943666Y-69094095D01*
X117896047Y-69236952D01*
X117324619Y-69808380D01*
X117943666Y-69808380D01*
%TO.C,RV1*%
D13*
X125519047Y-51047523D02*
X125095714Y-50442761D01*
X124793333Y-51047523D02*
X124793333Y-49777523D01*
X125277142Y-49777523D01*
X125398095Y-49838000D01*
X125458571Y-49898476D01*
X125519047Y-50019428D01*
X125519047Y-50200857D01*
X125458571Y-50321809D01*
X125398095Y-50382285D01*
X125277142Y-50442761D01*
X124793333Y-50442761D01*
X125881904Y-49777523D02*
X126305238Y-51047523D01*
X126728571Y-49777523D01*
X127817142Y-51047523D02*
X127091428Y-51047523D01*
X127454285Y-51047523D02*
X127454285Y-49777523D01*
X127333333Y-49958952D01*
X127212380Y-50079904D01*
X127091428Y-50140380D01*
%TD*%
M02*
